<?xml version="1.0" standalone="no"?><!DOCTYPE svg PUBLIC "-//W3C//DTD SVG 1.1//EN" "http://www.w3.org/Graphics/SVG/1.1/DTD/svg11.dtd"><svg t="1738733023279" class="icon" viewBox="0 0 1024 1024" version="1.1" xmlns="http://www.w3.org/2000/svg" p-id="5045" xmlns:xlink="http://www.w3.org/1999/xlink" width="64" height="64"><path d="M512 34.304C248.32 34.304 34.304 247.808 34.304 512s214.016 477.696 477.696 477.696c126.976 0.512 248.32-50.176 337.92-139.776s139.776-210.944 139.776-337.92c0-263.68-213.504-477.696-477.696-477.696zM419.84 266.752c15.36-35.84 52.224-60.416 95.232-60.416 57.344 0 103.424 44.544 103.424 99.328s-46.08 99.328-103.424 99.328c-39.936 0-74.752-22.016-92.16-54.272-58.88 29.696-99.328 88.064-102.4 155.136l-80.896 25.6c-0.512-5.632-0.512-11.264-0.512-17.408 0-113.664 75.776-210.432 180.736-247.296z m93.184 509.952c-58.368 0-112.128-17.408-156.16-47.104-11.776 4.608-24.576 6.656-37.888 6.656-56.832 0-103.424-44.544-103.424-99.328s46.08-99.328 103.424-99.328c56.832 0 103.424 44.544 103.424 99.328 0 12.8-2.56 24.576-7.168 35.84 28.672 16.384 61.952 25.6 97.792 25.6 22.016 0 43.52-3.584 63.488-10.24l47.104 65.536c-33.792 14.848-71.168 23.04-110.592 23.04z m192-33.792c-57.344 0-103.424-44.544-103.424-99.328 0-54.272 45.056-98.304 101.376-99.328 1.536-9.728 2.56-19.968 2.56-30.208 0-56.832-26.624-108.032-69.12-141.824l20.48-81.408c77.824 46.08 129.536 129.024 129.536 223.232 0 20.992-2.56 41.472-7.168 60.928 17.92 17.92 28.672 41.984 28.672 68.608 0.512 54.784-46.08 98.816-102.912 99.328z" p-id="5046" fill="#2c2c2c"></path></svg>