<?xml version="1.0" standalone="no"?><!DOCTYPE svg PUBLIC "-//W3C//DTD SVG 1.1//EN" "http://www.w3.org/Graphics/SVG/1.1/DTD/svg11.dtd"><svg t="1738733043253" class="icon" viewBox="0 0 1024 1024" version="1.1" xmlns="http://www.w3.org/2000/svg" p-id="6382" xmlns:xlink="http://www.w3.org/1999/xlink" width="64" height="64"><path d="M505.6 477.952c-12.288 0-24.32-2.304-35.84-7.168L67.328 305.92c-11.264-4.608-18.944-15.616-18.944-27.904s6.912-23.552 17.92-28.672l400.128-183.296c26.368-12.032 56.32-12.032 82.688-0.256l398.08 179.2c11.264 5.12 18.176 16.128 18.176 28.416s-7.68 23.296-18.944 27.904l-404.224 169.216c-11.776 4.864-24.064 7.424-36.608 7.424z" fill="#2c2c2c" p-id="6383"></path><path d="M490.496 523.264c0.256 0.256 0.512 0.256 1.024 0.512 8.96 4.608 19.712 4.608 28.672 0 0.256-0.256 0.512-0.256 1.024-0.512l181.248-72.96 65.536-28.672 73.728-30.976 112.384 65.536c9.984 5.632 15.872 16.384 15.36 27.904-0.512 11.52-7.168 21.504-17.664 26.624L547.84 701.44c-13.056 6.656-27.648 9.984-41.984 9.984-14.336 0-28.672-3.328-41.728-9.728L64.256 514.56c-10.496-4.864-17.152-15.104-17.664-26.624s5.632-22.272 15.616-27.904l113.92-64 78.08 32.512" fill="#2c2c2c" p-id="6384"></path><path d="M489.984 768.768c11.264 5.632 24.576 5.632 35.584 0l146.944-75.008 77.056-39.68 65.024-33.024h0.256l140.8 80.64c11.264 6.4 17.408 19.456 14.848 32.768-1.792 9.472-8.448 17.408-16.896 21.76l-399.872 205.568c-14.336 7.424-30.208 11.008-46.08 11.008-15.616 0-31.488-3.584-45.568-11.008l-396.8-202.24c-9.984-5.12-16.384-15.36-16.64-26.624-0.256-11.264 5.632-21.76 15.616-27.392l133.888-76.288h0.256l70.144 32.512" fill="#2c2c2c" p-id="6385"></path></svg>